<svg xmlns="http://www.w3.org/2000/svg" viewBox="0 0 96 96" role="img" aria-label="Micro EV">
  <rect width="96" height="96" rx="22" fill="#E8F8EF"/>
  <path d="M24 54c2-12 10-20 24-20s22 8 24 20v8H24v-8z" fill="#0F9D58"/>
  <path d="M30 44h36c2 0 4 2 4 4v6H26v-6c0-2 2-4 4-4z" fill="#34A853"/>
  <rect x="32" y="46" width="12" height="8" rx="2" fill="#C8F0D8"/>
  <rect x="52" y="46" width="12" height="8" rx="2" fill="#C8F0D8"/>
  <circle cx="34" cy="66" r="7" fill="#1A1A1A"/>
  <circle cx="62" cy="66" r="7" fill="#1A1A1A"/>
  <circle cx="34" cy="66" r="3" fill="#FFFFFF"/>
  <circle cx="62" cy="66" r="3" fill="#FFFFFF"/>
  <path d="M52 22l-8 12h6l-4 10 12-14h-6l6-8z" fill="#F4B400"/>
  <circle cx="72" cy="28" r="10" fill="#0F9D58"/>
  <path d="M68 28h4v-4h2v4h4v2h-4v4h-2v-4h-4z" fill="#FFFFFF"/>
</svg>
